<svg xmlns="http://www.w3.org/2000/svg" width="96" height="96" preserveAspectRatio="xMidYMid meet" version="1.0" viewBox="0 0 960 960"><g id="layer101" fill="#022f44" stroke="none"><path d="M236 753 c-9 -43 -23 -107 -31 -143 -38 -171 -75 -352 -75 -363 0 -9 26 -11 96 -9 l96 3 -6 -36 c-4 -20 -10 -43 -13 -51 -4 -12 23 -14 177 -14 154 0 181 2 177 14 -3 8 -9 31 -13 50 l-6 36 96 0 c53 0 96 4 96 8 0 8 -52 256 -106 502 -7 36 -14 68 -14 73 0 4 -103 7 -229 7 l-229 0 -16 -77z"/></g><g id="layer102" fill="#eceff0" stroke="none"><path d="M257 663 c-4 -3 -7 -73 -7 -155 l0 -148 79 0 c63 0 83 4 104 20 32 26 42 78 23 125 -17 39 -47 55 -107 55 l-39 0 0 55 c0 51 -2 55 -23 55 -13 0 -27 -3 -30 -7z m129 -161 c18 -12 24 -41 14 -67 -8 -21 -16 -25 -50 -25 l-40 0 0 50 c0 50 0 50 33 50 17 0 37 -4 43 -8z"/><path d="M441 663 c0 -5 22 -73 47 -153 l47 -145 40 -3 40 -3 44 138 c24 76 46 146 48 156 4 13 -1 17 -24 17 -25 0 -32 -5 -39 -32 -10 -32 -11 -33 -69 -33 -58 0 -59 1 -69 33 -7 26 -14 32 -37 32 -16 0 -29 -3 -28 -7z m169 -120 c0 -4 -8 -34 -17 -67 l-17 -60 -17 50 c-27 75 -25 84 16 84 19 0 35 -3 35 -7z"/></g></svg>